<svg xmlns="http://www.w3.org/2000/svg" viewBox="0 0 128 128" role="img" aria-labelledby="title">
  <title id="title">FuturePath logo mark</title>
  <defs>
    <linearGradient id="red" x1="0" y1="0" x2="1" y2="1">
      <stop offset="0" stop-color="#df2c2c"/>
      <stop offset="1" stop-color="#bd2725"/>
    </linearGradient>
  </defs>
  <path fill="url(#red)" d="M14 105V48c0-21 14-35 35-35h65v58c0 25-18 43-43 43H29l-15-9Z"/>
  <path fill="#fff" d="M30 112c19-9 32-18 34-28 2-8-3-12-10-17-6-4-9-8-8-13 1-7 10-15 29-25-12 12-18 20-17 26 1 5 6 8 11 11 8 5 13 11 12 19-2 12-18 21-35 27H30Z"/>
  <path fill="#fff" d="m75 31 32-13-13 32-7-12-17 5 12-8-7-4Z"/>
</svg>
